<?xml version="1.0" encoding="UTF-8" standalone="no"?>
<!-- Created with Inkscape (http://www.inkscape.org/) -->

<svg
   xmlns:dc="http://purl.org/dc/elements/1.1/"
   xmlns:cc="http://creativecommons.org/ns#"
   xmlns:rdf="http://www.w3.org/1999/02/22-rdf-syntax-ns#"
   xmlns:svg="http://www.w3.org/2000/svg"
   xmlns="http://www.w3.org/2000/svg"
   xmlns:sodipodi="http://sodipodi.sourceforge.net/DTD/sodipodi-0.dtd"
   xmlns:inkscape="http://www.inkscape.org/namespaces/inkscape"
   version="1.1"
   width="221.68512"
   height="75.464752"
   id="svg2"
   xml:space="preserve"
   inkscape:version="0.91 r13725"
   sodipodi:docname="SATLogo.svg"><sodipodi:namedview
     pagecolor="#ffffff"
     bordercolor="#666666"
     borderopacity="1"
     objecttolerance="10"
     gridtolerance="10"
     guidetolerance="10"
     inkscape:pageopacity="0"
     inkscape:pageshadow="2"
     inkscape:window-width="1436"
     inkscape:window-height="855"
     id="namedview15"
     showgrid="false"
     inkscape:zoom="1.9564767"
     inkscape:cx="57.602635"
     inkscape:cy="-55.954212"
     inkscape:window-x="0"
     inkscape:window-y="0"
     inkscape:window-maximized="1"
     inkscape:current-layer="g10"
     fit-margin-top="1"
     fit-margin-left="1"
     fit-margin-right="1"
     fit-margin-bottom="1" /><metadata
     id="metadata8"><rdf:RDF><cc:Work
         rdf:about=""><dc:format>image/svg+xml</dc:format><dc:type
           rdf:resource="http://purl.org/dc/dcmitype/StillImage" /><dc:title></dc:title></cc:Work></rdf:RDF></metadata><defs
     id="defs6" /><g
     transform="matrix(1.25,0,0,-1.25,-9.6298875,158.205)"
     id="g10"><g
       id="g4150"><path
         d="m 8.50391,112.729 c 0,7.201 5.83359,13.035 13.03479,13.035 7.2011,0 13.0086,-5.834 13.0086,-13.035 0,-7.201 -5.8075,-13.0341 -13.0086,-13.0341 -7.2012,0 -13.03479,5.8331 -13.03479,13.0341"
         inkscape:connector-curvature="0"
         id="path16"
         style="fill:#0056b8;fill-opacity:1;fill-rule:evenodd;stroke:none" /><path
         d="m 39.7613,112.729 c 0,7.201 5.8332,13.035 13.0344,13.035 7.2016,0 13.0348,-5.834 13.0348,-13.035 0,-7.201 -5.8332,-13.0341 -13.0348,-13.0341 -7.2012,0 -13.0344,5.8331 -13.0344,13.0341"
         inkscape:connector-curvature="0"
         id="path18"
         style="fill:#0056b8;fill-opacity:1;fill-rule:evenodd;stroke:none" /><path
         d="m 8.50391,80.0266 c 0,7.2015 5.83359,13.0086 13.03479,13.0086 7.2011,0 13.0086,-5.8071 13.0086,-13.0086 0,-7.2012 -5.8075,-13.0344 -13.0086,-13.0344 -7.2012,0 -13.03479,5.8332 -13.03479,13.0344"
         inkscape:connector-curvature="0"
         id="path20"
         style="fill:#0056b8;fill-opacity:1;fill-rule:evenodd;stroke:none" /><path
         d="m 39.7613,80.0266 c 0,7.2015 5.8332,13.0086 13.0344,13.0086 7.2016,0 13.0348,-5.8071 13.0348,-13.0086 0,-7.2012 -5.8332,-13.0344 -13.0348,-13.0344 -7.2012,0 -13.0344,5.8332 -13.0344,13.0344"
         inkscape:connector-curvature="0"
         id="path22"
         style="fill:#0056b8;fill-opacity:1;fill-rule:evenodd;stroke:none" /><path
         d="m 76.0516,83.6145 1.4199,7.8464 c 0,0 15.1508,-5.6265 18.7902,-2.5297 0,0 2.4004,2.9684 -3.923,3.2266 0,0 -16.416,3.3813 -14.0414,10.6602 0,0 0.4386,8.879 22.3267,6.478 0,0 5.446,-0.567 7.976,-2.245 l -0.981,-6.324 c 0,0 -7.279,4.517 -15.1514,2.968 0,0 -2.8133,-0.154 -2.091,-2.813 0,0 1.7039,-1.6777 5.7562,-1.8328 0,0 14.7382,-1.4195 13.8862,-9.7047 0,0 0.981,-10.6343 -20.4936,-7.9757 l -13.4738,2.2457"
         inkscape:connector-curvature="0"
         id="path24"
         style="fill:#231f20;fill-opacity:1;fill-rule:evenodd;stroke:none" /><path
         d="m 110.871,81.9367 14.17,26.7923 15.693,0 13.628,-26.3794 -13.886,0 c 0,0 -4.078,8.1305 -8.285,8.8274 l 4.336,0.8519 -3.484,9.3951 -8.157,-19.6424 -14.015,0.1551"
         inkscape:connector-curvature="0"
         id="path26"
         style="fill:#231f20;fill-opacity:1;fill-rule:evenodd;stroke:none" /><path
         d="m 150.568,99.4625 0,9.6785 33.684,0 0,-9.2398 -10.66,0 0,-18.1196 -12.492,0 0,17.6809 -10.532,0"
         inkscape:connector-curvature="0"
         id="path28"
         style="fill:#231f20;fill-opacity:1;fill-rule:evenodd;stroke:none" /></g></g></svg>